<svg width="580" height="395" viewBox="0 0 580 395" fill="none" xmlns="http://www.w3.org/2000/svg">
<path d="M188 132V216C188 216 253.393 190.109 297 191.5C337.242 192.784 396.5 218.5 396.5 218.5V148L345.5 156.5L468 92.5L292.5 0L114 92.5L119 96V183C115.68 186.319 108.809 187.121 110.5 191.5C111.347 193.693 114.606 193.462 115 195.5C115.514 198.163 110.5 201.5 110.5 201.5V244.5H137V201.5C137 201.5 132.426 198.257 133 195.5C133.541 192.9 136.238 193.574 137 191.5C138.666 186.962 128 183 128 183V101.5L188 132Z" fill="#184AAB"/>
<path d="M308 41.0003V40.3337C306.568 40.3394 303.741 40.5088 298.5 41.0003C282.5 42.5007 249.5 131 249.5 131L239.5 119C239.5 119 273 30.0007 291.5 28.5003C310 27 308 28.5003 308 28.5003V40.3337C310.939 40.322 308 41.0003 308 41.0003Z" fill="#F8783C"/>
<path d="M308 81.5C308 81.5 306.5 79.5 304.5 77.5C302.5 75.5 294.5 93.5 294.5 93.5L330 95.5L340.5 119L330 132.5L319.5 109.5H288.5L280.5 126.5H266.5L300 53H310.5L323.5 81.5H308Z" fill="#F8783C"/>
<path d="M328 134.5H252.5C252.5 134.5 276.545 149.984 293.5 149C308.09 148.154 328 134.5 328 134.5Z" fill="#F8783C"/>
<path d="M461 264C403.149 295.311 306 377.5 306 377.5C306 377.5 394.413 334.122 461 323.5C500.608 317.182 572 319.5 572 319.5L580 288.5C580 288.5 514.477 290.018 472 299.5C440.822 306.46 391 326 391 326C391 326 405.935 308.731 438 297.5C474.76 284.625 567 267.5 567 267.5L559.5 229.5C559.5 229.5 505.681 239.817 461 264Z" fill="#184AAB"/>
<path d="M469.5 339.5C410.976 345.661 327 388.5 327 388.5C327 388.5 374 364.5 438 364.5C466.416 364.5 541 380 541 380L561.5 342.5C561.5 342.5 505.25 335.736 469.5 339.5Z" fill="#184AAB"/>
<path d="M119 264C176.851 295.311 274 377.5 274 377.5C274 377.5 185.587 334.122 119 323.5C79.3916 317.182 8 319.5 8 319.5L0 288.5C0 288.5 65.5226 290.018 108 299.5C139.178 306.46 189 326 189 326C189 326 174.065 308.731 142 297.5C105.24 284.625 13 267.5 13 267.5L20.5 229.5C20.5 229.5 74.3195 239.817 119 264Z" fill="#184AAB"/>
<path d="M110.5 339.5C169.024 345.661 253 388.5 253 388.5C253 388.5 206 364.5 142 364.5C113.584 364.5 39 380 39 380L18.5 342.5C18.5 342.5 74.7502 335.736 110.5 339.5Z" fill="#184AAB"/>
<path d="M292.5 346.5V395H296.5C296.5 395 296.48 382.878 299.5 376C303.664 366.518 318 357 318 357L304 319.5H315L318 299H263L266.5 319.5H276.5L263 357C263 357 276.637 366.757 281 376C284.237 382.857 285 395 285 395H289V346.5H292.5Z" fill="#FB7652"/>
<path d="M251 240.5H243.5V260.5V279H251C251 279 264.5 252.25 267 254.5C269.5 256.75 267 279 267 279H275V240.5H267L251 264.5C247.5 261.5 251 240.5 251 240.5Z" fill="#EA7534"/>
<path d="M314 240.5V279H306.5V248H294.5C294.5 248 297.64 264.663 292.5 273C290.899 275.596 290.294 277.777 287.5 279C284.996 280.096 280.5 279 280.5 279C280.5 279 279.679 275.195 280.5 273C281.718 269.744 286.043 270.657 287.5 267.5C290.5 261 287.5 240.5 287.5 240.5H314Z" fill="#EA7534"/>
<path d="M391 279V240.5H399V254.5H413.5V240.5H422.5V279H413.5V262H399V279H391Z" fill="#EA7534"/>
<path d="M327.5 240.5H319C319 240.5 328.5 263 332 267.5C335.5 272 326.653 269.881 325.5 273C324.688 275.198 325.5 279 325.5 279C325.5 279 329.585 279.782 332 279C335.287 277.936 336 277 338.5 273C341 269 345.5 257 345.5 257L351 240.5H342C342 240.5 338.5 257.102 334.5 257C330.5 256.898 327.5 240.5 327.5 240.5Z" fill="#EA7534"/>
<path d="M155.5 277.999C155.5 277.999 165 240.998 169.5 240.999C174 240.999 174.5 240.234 177 240.999C179.5 241.764 190.5 277.999 190.5 277.999H182C182 277.999 180 269.5 179 266H169C168.5 266 169 262 170 262H178C178 262 175.298 250.258 173.23 251.499C170.73 252.999 164 277.999 164 277.999H155.5Z" fill="#EA7534"/>
<path d="M196 240.999C194.5 240.999 196 277.999 196 277.999H206.5C206.5 277.999 204.5 255.498 206.5 254.499C208.5 253.499 215.5 277.999 215.5 277.999H219.5C219.5 277.999 224.5 253.998 227 254.499C229.5 254.999 227 277.999 227 277.999H236C236 277.999 237.5 241.321 236 240.999C234.5 240.677 231.5 239.614 227 240.999C222.5 242.383 217.292 264.853 217 264.499C216.708 264.145 207.5 241.797 205 240.999C201.094 239.751 197.5 240.999 196 240.999Z" fill="#EA7534"/>
<path d="M362.5 240.5H354C354 240.5 363.5 265 366 269C368.5 273 360.191 270.859 359 274C358.238 276.008 359 279.5 359 279.5C359 279.5 363.423 280.412 366 279.5C368.616 278.574 369.25 278.5 371.5 275C373.75 271.5 386.5 240.5 386.5 240.5H378.5C378.5 240.5 373 256 370 256C367 256 362.5 240.5 362.5 240.5Z" fill="#EA7534"/>
</svg>
